<?xml version="1.0" encoding="utf-8"?>
<!-- Generator: Adobe Illustrator 24.0.2, SVG Export Plug-In . SVG Version: 6.00 Build 0)  -->
<svg version="1.1" id="Layer_1" xmlns="http://www.w3.org/2000/svg" xmlns:xlink="http://www.w3.org/1999/xlink" x="0px" y="0px"
	 viewBox="0 0 3600 1052" style="enable-background:new 0 0 3600 1052;" xml:space="preserve">
<style type="text/css">
	.st0{fill-rule:evenodd;clip-rule:evenodd;fill:#0091FF;}
	.st1{filter:url(#Adobe_OpacityMaskFilter);}
	.st2{fill-rule:evenodd;clip-rule:evenodd;fill:#FFFFFF;}
	.st3{opacity:0.5;mask:url(#mask-2_1_);}
	.st4{opacity:0.4976;}
	.st5{fill-rule:evenodd;clip-rule:evenodd;fill:url(#Rectangle-3-Copy-10_2_);fill-opacity:0.25;}
	.st6{fill-rule:evenodd;clip-rule:evenodd;fill:url(#Rectangle-3-Copy-11_2_);fill-opacity:0.25;}
	.st7{fill-rule:evenodd;clip-rule:evenodd;fill:url(#Rectangle-3-Copy-13_2_);fill-opacity:0.25;}
	.st8{fill-rule:evenodd;clip-rule:evenodd;fill:url(#Rectangle-3-Copy-12_2_);fill-opacity:0.25;}
	.st9{fill-rule:evenodd;clip-rule:evenodd;fill:url(#Rectangle-3-Copy_2_);fill-opacity:0.25;}
	.st10{fill-rule:evenodd;clip-rule:evenodd;fill:url(#Rectangle-3-Copy-5_2_);fill-opacity:0.25;}
	.st11{fill-rule:evenodd;clip-rule:evenodd;fill:url(#Rectangle-3-Copy-3_2_);fill-opacity:0.25;}
	.st12{fill-rule:evenodd;clip-rule:evenodd;fill:url(#Rectangle-3-Copy-2_2_);fill-opacity:0.25;}
	.st13{fill-rule:evenodd;clip-rule:evenodd;fill:url(#Rectangle-3-Copy-17_2_);fill-opacity:0.25;}
	.st14{fill:none;stroke:url(#Line_2_);stroke-width:2.5688;stroke-linecap:square;stroke-opacity:0.5;}
	.st15{fill:none;stroke:url(#Line-Copy_2_);stroke-width:2.5688;stroke-linecap:square;stroke-opacity:0.5;}
	.st16{fill:none;stroke:url(#Line-Copy-2_2_);stroke-width:2.5688;stroke-linecap:square;stroke-opacity:0.5;}
	.st17{fill:none;stroke:url(#Line-Copy-3_2_);stroke-width:2.5688;stroke-linecap:square;stroke-opacity:0.5;}
	.st18{fill:none;stroke:url(#Line-Copy-5_2_);stroke-width:2.5688;stroke-linecap:square;stroke-opacity:0.5;}
	.st19{fill:none;stroke:url(#Line-Copy-6_2_);stroke-width:2.5688;stroke-linecap:square;stroke-opacity:0.5;}
	.st20{fill:none;stroke:url(#Line-Copy-7_2_);stroke-width:2.5688;stroke-linecap:square;stroke-opacity:0.5;}
	.st21{fill-rule:evenodd;clip-rule:evenodd;fill:url(#Rectangle-3-Copy-10_5_);fill-opacity:0.25;}
	.st22{fill-rule:evenodd;clip-rule:evenodd;fill:url(#Rectangle-3-Copy-11_5_);fill-opacity:0.25;}
	.st23{fill-rule:evenodd;clip-rule:evenodd;fill:url(#Rectangle-3-Copy-13_5_);fill-opacity:0.25;}
	.st24{fill-rule:evenodd;clip-rule:evenodd;fill:url(#Rectangle-3-Copy-12_5_);fill-opacity:0.25;}
	.st25{fill-rule:evenodd;clip-rule:evenodd;fill:url(#Rectangle-3-Copy_5_);fill-opacity:0.25;}
	.st26{fill-rule:evenodd;clip-rule:evenodd;fill:url(#Rectangle-3-Copy-5_5_);fill-opacity:0.25;}
	.st27{fill-rule:evenodd;clip-rule:evenodd;fill:url(#Rectangle-3-Copy-3_5_);fill-opacity:0.25;}
	.st28{fill-rule:evenodd;clip-rule:evenodd;fill:url(#Rectangle-3-Copy-2_5_);fill-opacity:0.25;}
	.st29{fill-rule:evenodd;clip-rule:evenodd;fill:url(#Rectangle-3-Copy-17_5_);fill-opacity:0.25;}
	.st30{fill:none;stroke:url(#Line_5_);stroke-width:2.5688;stroke-linecap:square;stroke-opacity:0.5;}
	.st31{fill:none;stroke:url(#Line-Copy_5_);stroke-width:2.5688;stroke-linecap:square;stroke-opacity:0.5;}
	.st32{fill:none;stroke:url(#Line-Copy-2_5_);stroke-width:2.5688;stroke-linecap:square;stroke-opacity:0.5;}
	.st33{fill:none;stroke:url(#Line-Copy-3_5_);stroke-width:2.5688;stroke-linecap:square;stroke-opacity:0.5;}
	.st34{fill:none;stroke:url(#Line-Copy-5_5_);stroke-width:2.5688;stroke-linecap:square;stroke-opacity:0.5;}
	.st35{fill:none;stroke:url(#Line-Copy-6_5_);stroke-width:2.5688;stroke-linecap:square;stroke-opacity:0.5;}
	.st36{fill:none;stroke:url(#Line-Copy-7_5_);stroke-width:2.5688;stroke-linecap:square;stroke-opacity:0.5;}
</style>
<g id="Style-Inventory">
	<g id="WP-Rocket-Background-Orange">
		<g id="Group-5" transform="translate(-2.000000, 0.000000)">
			<g id="Mask">
				<polygon id="path-1_1_" class="st0" points="2,0 3602,0 3600,507.4 0,1051.9 				"/>
			</g>
			<defs>
				<filter id="Adobe_OpacityMaskFilter" filterUnits="userSpaceOnUse" x="-77.7" y="46.4" width="3135.1" height="869.9">
					<feColorMatrix  type="matrix" values="1 0 0 0 0  0 1 0 0 0  0 0 1 0 0  0 0 0 1 0"/>
				</filter>
			</defs>
			<mask maskUnits="userSpaceOnUse" x="-77.7" y="46.4" width="3135.1" height="869.9" id="mask-2_1_">
				<g class="st1">
					<polygon id="path-1_2_" class="st2" points="2,0 3602,0 3600,507.4 0,1051.9 					"/>
				</g>
			</mask>
			<g id="Group-6" class="st3">
				
					<g transform="translate(1488.386330, 520.797592) rotate(2.000000) translate(-1488.386330, -520.797592) translate(-76.613670, -4.702408)">
					
						<g id="Group-3" transform="translate(1712.000000, 525.500000) rotate(2.000000) translate(-1712.000000, -525.500000) translate(312.000000, 49.000000)" class="st4">
					</g>
					<g id="Group-4" transform="translate(0.482452, 0.430976)">
						<g id="Group" transform="translate(660.125165, 0.382605)">
							
								<linearGradient id="Rectangle-3-Copy-10_2_" gradientUnits="userSpaceOnUse" x1="865.6929" y1="1200.6404" x2="866.4902" y2="1200.6404" gradientTransform="matrix(1358.4683 -291.3769 -62.7515 -61.869 -1099974.75 327151.0313)">
								<stop  offset="0.5375" style="stop-color:#FFFFFF;stop-opacity:0"/>
								<stop  offset="1" style="stop-color:#FFFFFF"/>
							</linearGradient>
							<path id="Rectangle-3-Copy-10" class="st5" d="M527.2,624.7L1815.1,351c19.9-4.2,39.4,8.5,43.7,28.3l0,0
								c4.2,19.9-8.5,39.4-28.3,43.7L542.5,696.7c-19.9,4.2-39.4-8.5-43.7-28.3l0,0C494.7,648.5,507.4,628.9,527.2,624.7z"/>
							
								<linearGradient id="Rectangle-3-Copy-11_2_" gradientUnits="userSpaceOnUse" x1="864.532" y1="1200.6809" x2="865.3294" y2="1200.6809" gradientTransform="matrix(637.1817 -138.0631 -37.5639 -67.2228 -505388.1563 200856.6719)">
								<stop  offset="0" style="stop-color:#FFFFFF;stop-opacity:0"/>
								<stop  offset="1" style="stop-color:#FFFFFF"/>
							</linearGradient>
							<path id="Rectangle-3-Copy-11" class="st6" d="M307.7,760l566.1-120.3c19.9-4.2,39.4,8.5,43.7,28.3l0,0
								c4.2,19.9-8.5,39.4-28.3,43.7L323,832c-19.9,4.2-39.4-8.5-43.7-28.3l0,0C275.1,783.7,287.8,764.2,307.7,760z"/>
							
								<linearGradient id="Rectangle-3-Copy-13_2_" gradientUnits="userSpaceOnUse" x1="864.3386" y1="1200.6876" x2="865.136" y2="1200.6876" gradientTransform="matrix(585.3699 -127.0502 -35.7547 -67.6074 -461522.3125 191532.7344)">
								<stop  offset="0" style="stop-color:#FFFFFF;stop-opacity:0"/>
								<stop  offset="1" style="stop-color:#FFFFFF"/>
							</linearGradient>
							<path id="Rectangle-3-Copy-13" class="st7" d="M1447.2,517.8l514.3-109.3c19.9-4.2,39.4,8.5,43.7,28.3v0
								c4.2,19.9-8.5,39.4-28.3,43.7l-514.3,109.3c-19.9,4.2-39.4-8.5-43.7-28.3l0,0C1414.6,541.5,1427.3,522,1447.2,517.8z"/>
							
								<linearGradient id="Rectangle-3-Copy-12_2_" gradientUnits="userSpaceOnUse" x1="864.8107" y1="1200.6711" x2="865.6081" y2="1200.6711" gradientTransform="matrix(730.3049 -157.857 -40.8158 -66.5316 -582291.875 217291.6406)">
								<stop  offset="0" style="stop-color:#FFFFFF;stop-opacity:0"/>
								<stop  offset="1" style="stop-color:#FFFFFF"/>
							</linearGradient>
							<path id="Rectangle-3-Copy-12" class="st8" d="M197.6,872l659.3-140.1c19.9-4.2,39.4,8.5,43.7,28.3l0,0
								c4.2,19.9-8.5,39.4-28.3,43.7L212.9,944c-19.9,4.2-39.4-8.5-43.7-28.3l0,0C165.1,895.7,177.7,876.2,197.6,872z"/>
							
								<linearGradient id="Rectangle-3-Copy_2_" gradientUnits="userSpaceOnUse" x1="865.8181" y1="1200.636" x2="866.6154" y2="1200.636" gradientTransform="matrix(1547.3314 -331.5209 -69.3466 -60.4672 -1256210.375 359984.8125)">
								<stop  offset="0" style="stop-color:#FFFFFF;stop-opacity:0"/>
								<stop  offset="1" style="stop-color:#FFFFFF"/>
							</linearGradient>
							<path id="Rectangle-3-Copy" class="st9" d="M36.7,353.9L1513.5,40c19.9-4.2,39.4,8.5,43.7,28.3l0,0
								c4.2,19.9-8.5,39.4-28.3,43.7L52,425.9c-19.9,4.2-39.4-8.5-43.7-28.3l0,0C4.2,377.7,16.9,358.1,36.7,353.9z"/>
							
								<linearGradient id="Rectangle-3-Copy-5_2_" gradientUnits="userSpaceOnUse" x1="865.7449" y1="1200.6385" x2="866.5422" y2="1200.6385" gradientTransform="matrix(1431.0178 -306.7977 -65.2849 -61.3305 -1159544.875 339720.7813)">
								<stop  offset="0" style="stop-color:#FFFFFF;stop-opacity:0"/>
								<stop  offset="1" style="stop-color:#FFFFFF"/>
							</linearGradient>
							<path id="Rectangle-3-Copy-5" class="st10" d="M784.8,477.7l1360.4-289.2c19.9-4.2,39.4,8.5,43.7,28.3v0
								c4.2,19.9-8.5,39.4-28.3,43.7L800.1,549.7c-19.9,4.2-39.4-8.5-43.7-28.3l0,0C752.2,501.5,764.9,481.9,784.8,477.7z"/>
							
								<linearGradient id="Rectangle-3-Copy-3_2_" gradientUnits="userSpaceOnUse" x1="865.8181" y1="1200.636" x2="866.6154" y2="1200.636" gradientTransform="matrix(1547.3314 -331.5209 -69.3466 -60.4672 -1255617 359953.375)">
								<stop  offset="0" style="stop-color:#FFFFFF;stop-opacity:0"/>
								<stop  offset="1" style="stop-color:#FFFFFF"/>
							</linearGradient>
							<path id="Rectangle-3-Copy-3" class="st11" d="M630.1,322.5L2107,8.5c19.9-4.2,39.4,8.5,43.7,28.3l0,0
								c4.2,19.9-8.5,39.4-28.3,43.7L645.5,394.5c-19.9,4.2-39.4-8.5-43.7-28.3l0,0C597.6,346.2,610.3,326.7,630.1,322.5z"/>
							
								<linearGradient id="Rectangle-3-Copy-2_2_" gradientUnits="userSpaceOnUse" x1="865.5938" y1="1200.6438" x2="866.3911" y2="1200.6438" gradientTransform="matrix(1238.7876 -265.938 -58.5722 -62.7574 -1000681.8125 305860.0313)">
								<stop  offset="0" style="stop-color:#FFFFFF;stop-opacity:0"/>
								<stop  offset="1" style="stop-color:#FFFFFF"/>
							</linearGradient>
							<path id="Rectangle-3-Copy-2" class="st12" d="M1125.9,311.7L2294,63.5c19.9-4.2,39.4,8.5,43.7,28.3l0,0
								c4.2,19.9-8.5,39.4-28.3,43.7L1141.2,383.7c-19.9,4.2-39.4-8.5-43.7-28.3l0,0C1093.4,335.5,1106.1,316,1125.9,311.7z"/>
							
								<linearGradient id="Rectangle-3-Copy-17_2_" gradientUnits="userSpaceOnUse" x1="865.0953" y1="1200.6613" x2="865.8927" y2="1200.6613" gradientTransform="matrix(858.4013 -185.0846 -45.289 -65.5808 -686733.625 239491.3594)">
								<stop  offset="0" style="stop-color:#FFFFFF;stop-opacity:0"/>
								<stop  offset="1" style="stop-color:#FFFFFF"/>
							</linearGradient>
							<path id="Rectangle-3-Copy-17" class="st13" d="M1390.1,618.5l787.5-167.4c19.9-4.2,39.4,8.5,43.7,28.3l0,0
								c4.2,19.9-8.5,39.4-28.3,43.7l-787.5,167.4c-19.9,4.2-39.4-8.5-43.7-28.3l0,0C1357.5,642.3,1370.2,622.7,1390.1,618.5z"/>
						</g>
						<g id="Group-2" transform="translate(329.000000, 168.240875)">
							
								<linearGradient id="Line_2_" gradientUnits="userSpaceOnUse" x1="1196.5559" y1="1030.5419" x2="1197.3533" y2="1030.5419" gradientTransform="matrix(1171.5598 -8.716 -40.9111 -249.615 -1358513.625 267879.5313)">
								<stop  offset="0" style="stop-color:#FFFFFF;stop-opacity:0"/>
								<stop  offset="0.5517" style="stop-color:#FFFFFF"/>
								<stop  offset="1" style="stop-color:#FFFFFF;stop-opacity:0"/>
							</linearGradient>
							<path id="Line" class="st14" d="M2161.9,86.7L989.6,336.5"/>
							
								<linearGradient id="Line-Copy_2_" gradientUnits="userSpaceOnUse" x1="1196.5559" y1="1030.5419" x2="1197.3533" y2="1030.5419" gradientTransform="matrix(1171.5598 -8.716 -40.9111 -249.615 -1359419.125 268254.5625)">
								<stop  offset="0" style="stop-color:#FFFFFF;stop-opacity:0"/>
								<stop  offset="0.5517" style="stop-color:#FFFFFF"/>
								<stop  offset="1" style="stop-color:#FFFFFF;stop-opacity:0"/>
							</linearGradient>
							<path id="Line-Copy" class="st15" d="M1256.4,461.7L84.1,711.5"/>
							
								<linearGradient id="Line-Copy-2_2_" gradientUnits="userSpaceOnUse" x1="1196.5559" y1="1030.542" x2="1197.3533" y2="1030.542" gradientTransform="matrix(1171.5599 -8.716 -40.9111 -249.615 -1358128.75 267889.1875)">
								<stop  offset="0" style="stop-color:#FFFFFF;stop-opacity:0"/>
								<stop  offset="0.5517" style="stop-color:#FFFFFF"/>
								<stop  offset="1" style="stop-color:#FFFFFF;stop-opacity:0"/>
							</linearGradient>
							<path id="Line-Copy-2" class="st16" d="M2547,96.3L1374.7,346.1"/>
							
								<linearGradient id="Line-Copy-3_2_" gradientUnits="userSpaceOnUse" x1="1196.5559" y1="1030.542" x2="1197.3533" y2="1030.542" gradientTransform="matrix(1171.5597 -8.716 -40.9111 -249.615 -1358195 267793.4688)">
								<stop  offset="0" style="stop-color:#FFFFFF;stop-opacity:0"/>
								<stop  offset="0.5517" style="stop-color:#FFFFFF"/>
								<stop  offset="1" style="stop-color:#FFFFFF;stop-opacity:0"/>
							</linearGradient>
							<path id="Line-Copy-3" class="st17" d="M2480.4,0.6L1308.2,250.4"/>
							
								<linearGradient id="Line-Copy-5_2_" gradientUnits="userSpaceOnUse" x1="1196.5559" y1="1030.542" x2="1197.3533" y2="1030.542" gradientTransform="matrix(1171.5598 -8.716 -40.9111 -249.615 -1359502.625 267806.3438)">
								<stop  offset="0" style="stop-color:#FFFFFF;stop-opacity:0"/>
								<stop  offset="0.5517" style="stop-color:#FFFFFF"/>
								<stop  offset="1" style="stop-color:#FFFFFF;stop-opacity:0"/>
							</linearGradient>
							<path id="Line-Copy-5" class="st18" d="M1172.9,13.5L0.6,263.2"/>
							
								<linearGradient id="Line-Copy-6_2_" gradientUnits="userSpaceOnUse" x1="1196.5559" y1="1030.542" x2="1197.3533" y2="1030.542" gradientTransform="matrix(1171.5598 -8.716 -40.9111 -249.615 -1358929.875 268313.6875)">
								<stop  offset="0" style="stop-color:#FFFFFF;stop-opacity:0"/>
								<stop  offset="0.5517" style="stop-color:#FFFFFF"/>
								<stop  offset="1" style="stop-color:#FFFFFF;stop-opacity:0"/>
							</linearGradient>
							<path id="Line-Copy-6" class="st19" d="M1745.7,520.8L573.5,770.6"/>
							
								<linearGradient id="Line-Copy-7_2_" gradientUnits="userSpaceOnUse" x1="1196.5559" y1="1030.5419" x2="1197.3533" y2="1030.5419" gradientTransform="matrix(1171.5599 -8.716 -40.9111 -249.615 -1357876.375 268014.6563)">
								<stop  offset="0" style="stop-color:#FFFFFF;stop-opacity:0"/>
								<stop  offset="0.5517" style="stop-color:#FFFFFF"/>
								<stop  offset="1" style="stop-color:#FFFFFF;stop-opacity:0"/>
							</linearGradient>
							<path id="Line-Copy-7" class="st20" d="M2799.3,221.8L1627,471.6"/>
						</g>
						<g id="Group_1_" transform="translate(409.125165, 0.382605)">
							
								<linearGradient id="Rectangle-3-Copy-10_5_" gradientUnits="userSpaceOnUse" x1="1116.6929" y1="1200.6404" x2="1117.4902" y2="1200.6404" gradientTransform="matrix(1358.4683 -291.3769 -62.7515 -61.869 -1440699.25 400286.625)">
								<stop  offset="0.5375" style="stop-color:#FFFFFF;stop-opacity:0"/>
								<stop  offset="1" style="stop-color:#FFFFFF"/>
							</linearGradient>
							<path id="Rectangle-3-Copy-10_1_" class="st21" d="M778.2,624.7L2066.1,351c19.9-4.2,39.4,8.5,43.7,28.3l0,0
								c4.2,19.9-8.5,39.4-28.3,43.7L793.5,696.7c-19.9,4.2-39.4-8.5-43.7-28.3l0,0C745.7,648.5,758.4,628.9,778.2,624.7z"/>
							
								<linearGradient id="Rectangle-3-Copy-11_5_" gradientUnits="userSpaceOnUse" x1="1115.5321" y1="1200.6809" x2="1116.3295" y2="1200.6809" gradientTransform="matrix(637.1817 -138.0631 -37.5639 -67.2228 -665481 235224.8125)">
								<stop  offset="0" style="stop-color:#FFFFFF;stop-opacity:0"/>
								<stop  offset="1" style="stop-color:#FFFFFF"/>
							</linearGradient>
							<path id="Rectangle-3-Copy-11_1_" class="st22" d="M147.5,474.3l566.1-120.3c19.9-4.2,39.4,8.5,43.7,28.3l0,0
								c4.2,19.9-8.5,39.4-28.3,43.7L162.8,546.3c-19.9,4.2-39.4-8.5-43.7-28.3l0,0C114.9,498,127.6,478.5,147.5,474.3z"/>
							
								<linearGradient id="Rectangle-3-Copy-13_5_" gradientUnits="userSpaceOnUse" x1="1115.3386" y1="1200.6876" x2="1116.136" y2="1200.6876" gradientTransform="matrix(585.3699 -127.0502 -35.7547 -67.6074 -608199.1875 223422.3281)">
								<stop  offset="0" style="stop-color:#FFFFFF;stop-opacity:0"/>
								<stop  offset="1" style="stop-color:#FFFFFF"/>
							</linearGradient>
							<path id="Rectangle-3-Copy-13_1_" class="st23" d="M1698.2,517.8l514.3-109.3c19.9-4.2,39.4,8.5,43.7,28.3v0
								c4.2,19.9-8.5,39.4-28.3,43.7l-514.3,109.3c-19.9,4.2-39.4-8.5-43.7-28.3l0,0C1665.6,541.5,1678.3,522,1698.2,517.8z"/>
							
								<linearGradient id="Rectangle-3-Copy-12_5_" gradientUnits="userSpaceOnUse" x1="1115.8108" y1="1200.6711" x2="1116.6082" y2="1200.6711" gradientTransform="matrix(730.3049 -157.857 -40.8158 -66.5316 -765759.75 256628.5)">
								<stop  offset="0" style="stop-color:#FFFFFF;stop-opacity:0"/>
								<stop  offset="1" style="stop-color:#FFFFFF"/>
							</linearGradient>
							<path id="Rectangle-3-Copy-12_1_" class="st24" d="M36.3,586.7l659.3-140.1c19.9-4.2,39.4,8.5,43.7,28.3l0,0
								c4.2,19.9-8.5,39.4-28.3,43.7L51.6,658.7c-19.9,4.2-39.4-8.5-43.7-28.3l0,0C3.7,610.5,16.4,590.9,36.3,586.7z"/>
							
								<linearGradient id="Rectangle-3-Copy_5_" gradientUnits="userSpaceOnUse" x1="1116.8181" y1="1200.636" x2="1117.6155" y2="1200.636" gradientTransform="matrix(1547.3314 -331.5209 -69.3466 -60.4672 -1644339.625 443196.5625)">
								<stop  offset="0" style="stop-color:#FFFFFF;stop-opacity:0"/>
								<stop  offset="1" style="stop-color:#FFFFFF"/>
							</linearGradient>
							<path id="Rectangle-3-Copy_1_" class="st25" d="M287.7,353.9L1764.5,40c19.9-4.2,39.4,8.5,43.7,28.3l0,0
								c4.2,19.9-8.5,39.4-28.3,43.7L303,425.9c-19.9,4.2-39.4-8.5-43.7-28.3l0,0C255.2,377.7,267.9,358.1,287.7,353.9z"/>
							
								<linearGradient id="Rectangle-3-Copy-5_5_" gradientUnits="userSpaceOnUse" x1="1116.7449" y1="1200.6385" x2="1117.5422" y2="1200.6385" gradientTransform="matrix(1431.0178 -306.7977 -65.2849 -61.3305 -1518479.375 416727.0313)">
								<stop  offset="0" style="stop-color:#FFFFFF;stop-opacity:0"/>
								<stop  offset="1" style="stop-color:#FFFFFF"/>
							</linearGradient>
							<path id="Rectangle-3-Copy-5_1_" class="st26" d="M1035.8,477.7l1360.4-289.2c19.9-4.2,39.4,8.5,43.7,28.3v0
								c4.2,19.9-8.5,39.4-28.3,43.7L1051.1,549.7c-19.9,4.2-39.4-8.5-43.7-28.3v0C1003.2,501.5,1015.9,481.9,1035.8,477.7z"/>
							
								<linearGradient id="Rectangle-3-Copy-3_5_" gradientUnits="userSpaceOnUse" x1="1116.8181" y1="1200.636" x2="1117.6155" y2="1200.636" gradientTransform="matrix(1547.3314 -331.5209 -69.3466 -60.4672 -1643746.25 443165.0938)">
								<stop  offset="0" style="stop-color:#FFFFFF;stop-opacity:0"/>
								<stop  offset="1" style="stop-color:#FFFFFF"/>
							</linearGradient>
							<path id="Rectangle-3-Copy-3_1_" class="st27" d="M881.1,322.5L2358,8.5c19.9-4.2,39.4,8.5,43.7,28.3l0,0
								c4.2,19.9-8.5,39.4-28.3,43.7L896.5,394.5c-19.9,4.2-39.4-8.5-43.7-28.3l0,0C848.6,346.2,861.3,326.7,881.1,322.5z"/>
							
								<linearGradient id="Rectangle-3-Copy-2_5_" gradientUnits="userSpaceOnUse" x1="1116.5938" y1="1200.6438" x2="1117.3911" y2="1200.6438" gradientTransform="matrix(1238.7876 -265.938 -58.5722 -62.7574 -1311366.5 372610.4688)">
								<stop  offset="0" style="stop-color:#FFFFFF;stop-opacity:0"/>
								<stop  offset="1" style="stop-color:#FFFFFF"/>
							</linearGradient>
							<path id="Rectangle-3-Copy-2_1_" class="st28" d="M1376.9,311.7L2545,63.5c19.9-4.2,39.4,8.5,43.7,28.3l0,0
								c4.2,19.9-8.5,39.4-28.3,43.7L1392.2,383.7c-19.9,4.2-39.4-8.5-43.7-28.3l0,0C1344.4,335.5,1357.1,316,1376.9,311.7z"/>
							
								<linearGradient id="Rectangle-3-Copy-17_5_" gradientUnits="userSpaceOnUse" x1="1116.0953" y1="1200.6613" x2="1116.8927" y2="1200.6613" gradientTransform="matrix(858.4013 -185.0846 -45.289 -65.5808 -901941.375 285947.5938)">
								<stop  offset="0" style="stop-color:#FFFFFF;stop-opacity:0"/>
								<stop  offset="1" style="stop-color:#FFFFFF"/>
							</linearGradient>
							<path id="Rectangle-3-Copy-17_1_" class="st29" d="M1641.1,618.5l787.5-167.4c19.9-4.2,39.4,8.5,43.7,28.3l0,0
								c4.2,19.9-8.5,39.4-28.3,43.7l-787.5,167.4c-19.9,4.2-39.4-8.5-43.7-28.3l0,0C1608.5,642.3,1621.2,622.7,1641.1,618.5z"/>
						</g>
						<g id="Group-2_1_" transform="translate(0.000000, 168.240875)">
							
								<linearGradient id="Line_5_" gradientUnits="userSpaceOnUse" x1="1525.5559" y1="1030.5419" x2="1526.3533" y2="1030.5419" gradientTransform="matrix(1171.5598 -8.716 -40.9111 -249.615 -1743627.875 270747.0938)">
								<stop  offset="0" style="stop-color:#FFFFFF;stop-opacity:0"/>
								<stop  offset="0.5517" style="stop-color:#FFFFFF"/>
								<stop  offset="1" style="stop-color:#FFFFFF;stop-opacity:0"/>
							</linearGradient>
							<path id="Line_1_" class="st30" d="M2490.9,86.7L1318.6,336.5"/>
							
								<linearGradient id="Line-Copy_5_" gradientUnits="userSpaceOnUse" x1="1525.5559" y1="1030.5419" x2="1526.3533" y2="1030.5419" gradientTransform="matrix(1171.5598 -8.716 -40.9111 -249.615 -1744945.125 270836.7813)">
								<stop  offset="0" style="stop-color:#FFFFFF;stop-opacity:0"/>
								<stop  offset="0.5517" style="stop-color:#FFFFFF"/>
								<stop  offset="1" style="stop-color:#FFFFFF;stop-opacity:0"/>
							</linearGradient>
							<path id="Line-Copy_1_" class="st31" d="M1173.7,176.4L1.4,426.1"/>
							
								<linearGradient id="Line-Copy-2_5_" gradientUnits="userSpaceOnUse" x1="1525.5559" y1="1030.542" x2="1526.3533" y2="1030.542" gradientTransform="matrix(1171.5599 -8.716 -40.9111 -249.615 -1743242.875 270756.75)">
								<stop  offset="0" style="stop-color:#FFFFFF;stop-opacity:0"/>
								<stop  offset="0.5517" style="stop-color:#FFFFFF"/>
								<stop  offset="1" style="stop-color:#FFFFFF;stop-opacity:0"/>
							</linearGradient>
							<path id="Line-Copy-2_1_" class="st32" d="M2876,96.3L1703.7,346.1"/>
							
								<linearGradient id="Line-Copy-3_5_" gradientUnits="userSpaceOnUse" x1="1525.5559" y1="1030.542" x2="1526.3533" y2="1030.542" gradientTransform="matrix(1171.5597 -8.716 -40.9111 -249.615 -1743309.125 270661.0625)">
								<stop  offset="0" style="stop-color:#FFFFFF;stop-opacity:0"/>
								<stop  offset="0.5517" style="stop-color:#FFFFFF"/>
								<stop  offset="1" style="stop-color:#FFFFFF;stop-opacity:0"/>
							</linearGradient>
							<path id="Line-Copy-3_1_" class="st33" d="M2809.4,0.6L1637.2,250.4"/>
							
								<linearGradient id="Line-Copy-5_5_" gradientUnits="userSpaceOnUse" x1="1525.5559" y1="1030.542" x2="1526.3533" y2="1030.542" gradientTransform="matrix(1171.5598 -8.716 -40.9111 -249.615 -1744616.875 270673.9063)">
								<stop  offset="0" style="stop-color:#FFFFFF;stop-opacity:0"/>
								<stop  offset="0.5517" style="stop-color:#FFFFFF"/>
								<stop  offset="1" style="stop-color:#FFFFFF;stop-opacity:0"/>
							</linearGradient>
							<path id="Line-Copy-5_1_" class="st34" d="M1501.9,13.5L329.6,263.2"/>
							
								<linearGradient id="Line-Copy-6_5_" gradientUnits="userSpaceOnUse" x1="1525.5559" y1="1030.5419" x2="1526.3533" y2="1030.5419" gradientTransform="matrix(1171.5598 -8.716 -40.9111 -249.615 -1744456.125 270895.7813)">
								<stop  offset="0" style="stop-color:#FFFFFF;stop-opacity:0"/>
								<stop  offset="0.5517" style="stop-color:#FFFFFF"/>
								<stop  offset="1" style="stop-color:#FFFFFF;stop-opacity:0"/>
							</linearGradient>
							<path id="Line-Copy-6_1_" class="st35" d="M1662.7,235.4L490.4,485.1"/>
							
								<linearGradient id="Line-Copy-7_5_" gradientUnits="userSpaceOnUse" x1="1525.5559" y1="1030.5419" x2="1526.3533" y2="1030.5419" gradientTransform="matrix(1171.5599 -8.716 -40.9111 -249.615 -1742990.625 270882.25)">
								<stop  offset="0" style="stop-color:#FFFFFF;stop-opacity:0"/>
								<stop  offset="0.5517" style="stop-color:#FFFFFF"/>
								<stop  offset="1" style="stop-color:#FFFFFF;stop-opacity:0"/>
							</linearGradient>
							<path id="Line-Copy-7_1_" class="st36" d="M3128.3,221.8L1956,471.6"/>
						</g>
					</g>
				</g>
			</g>
		</g>
	</g>
</g>
</svg>
